<svg width="584" height="585" xmlns="http://www.w3.org/2000/svg" xmlns:xlink="http://www.w3.org/1999/xlink" xml:space="preserve" overflow="hidden"><defs><clipPath id="clip0"><rect x="68" y="187" width="584" height="585"/></clipPath></defs><g clip-path="url(#clip0)" transform="translate(-68 -187)"><path d="M502.386 81.6566C467.645 46.9688 411.729 45.8497 375.628 79.1198L78.9008 375.549C44.6997 412.8 47.1726 470.724 84.4239 504.925 119.484 537.114 173.358 537.076 208.372 504.838L505.099 208.409C538.324 172.264 537.127 116.347 502.386 81.6566ZM234.604 297.536C229.836 302.305 222.106 302.305 217.337 297.538 212.569 292.77 212.568 285.04 217.335 280.271 222.102 275.503 229.833 275.502 234.602 280.27 234.603 280.27 234.603 280.271 234.604 280.271 239.371 285.035 239.374 292.762 234.61 297.529 234.608 297.532 234.606 297.533 234.604 297.536ZM269.133 332.071C264.365 336.84 256.635 336.84 251.866 332.073 247.098 327.305 247.097 319.575 251.864 314.806 256.632 310.038 264.362 310.037 269.131 314.805 269.132 314.805 269.132 314.806 269.133 314.806 273.9 319.57 273.903 327.297 269.139 332.064 269.137 332.067 269.135 332.069 269.133 332.071ZM269.133 263.007C264.365 267.776 256.635 267.776 251.866 263.009 247.098 258.241 247.097 250.511 251.864 245.742 256.632 240.974 264.362 240.973 269.131 245.741 269.132 245.741 269.132 245.742 269.133 245.742 273.9 250.506 273.903 258.233 269.139 263 269.137 263.003 269.135 263.004 269.133 263.007ZM303.662 366.6C298.894 371.369 291.164 371.369 286.395 366.602 281.627 361.834 281.626 354.104 286.393 349.335 291.16 344.567 298.891 344.566 303.66 349.334 303.661 349.334 303.661 349.335 303.662 349.335 308.429 354.099 308.432 361.826 303.668 366.593 303.666 366.596 303.664 366.598 303.662 366.6ZM303.662 297.536C298.894 302.305 291.164 302.305 286.395 297.538 281.627 292.77 281.626 285.04 286.393 280.271 291.16 275.503 298.891 275.502 303.66 280.27 303.661 280.27 303.661 280.271 303.662 280.271 308.429 285.035 308.432 292.762 303.668 297.529 303.666 297.532 303.664 297.533 303.662 297.536ZM303.662 228.478C298.894 233.247 291.164 233.247 286.395 228.48 281.627 223.712 281.626 215.982 286.393 211.213 291.16 206.445 298.891 206.444 303.66 211.212 303.661 211.212 303.661 211.213 303.662 211.213 308.429 215.977 308.432 223.704 303.668 228.471 303.666 228.474 303.664 228.475 303.662 228.478ZM338.197 332.071C333.429 336.84 325.699 336.84 320.931 332.073 316.162 327.305 316.161 319.575 320.928 314.806 325.696 310.038 333.426 310.037 338.195 314.805 338.196 314.805 338.196 314.806 338.197 314.806 342.964 319.57 342.967 327.297 338.204 332.064 338.201 332.067 338.199 332.069 338.197 332.071ZM338.197 263.007C333.429 267.776 325.699 267.776 320.931 263.009 316.162 258.241 316.161 250.511 320.928 245.742 325.696 240.974 333.426 240.973 338.195 245.741 338.196 245.741 338.196 245.742 338.197 245.742 342.964 250.506 342.967 258.233 338.204 263 338.201 263.003 338.199 263.004 338.197 263.007ZM372.726 297.536C367.958 302.305 360.228 302.305 355.46 297.538 350.691 292.77 350.69 285.04 355.457 280.271 360.225 275.503 367.955 275.502 372.724 280.27 372.725 280.27 372.725 280.271 372.726 280.271 377.493 285.035 377.496 292.762 372.733 297.529 372.73 297.532 372.728 297.533 372.726 297.536Z" fill="#FF5F5F" transform="matrix(1 0 0 1.00171 68 187)"/></g></svg>